<svg width="24" height="24" viewBox="0 0 24 24" fill="none" xmlns="http://www.w3.org/2000/svg">
<g clip-path="url(#clip0_2001_884)">
<path d="M0 0H24V8.00156H0V0Z" fill="#FF9933"/>
<path d="M0 8H24V15.9969H0V8Z" fill="white"/>
<path d="M0 16H24V24.0016H0V16Z" fill="#128807"/>
<path d="M11.9969 15.2047C13.7642 15.2047 15.1969 13.772 15.1969 12.0047C15.1969 10.2374 13.7642 8.80469 11.9969 8.80469C10.2296 8.80469 8.79688 10.2374 8.79688 12.0047C8.79688 13.772 10.2296 15.2047 11.9969 15.2047Z" fill="#000088"/>
<path d="M12.0031 14.8031C13.5495 14.8031 14.8031 13.5495 14.8031 12.0031C14.8031 10.4567 13.5495 9.20312 12.0031 9.20312C10.4567 9.20312 9.20312 10.4567 9.20312 12.0031C9.20312 13.5495 10.4567 14.8031 12.0031 14.8031Z" fill="white"/>
<path d="M11.9975 12.5575C12.3068 12.5575 12.5575 12.3068 12.5575 11.9975C12.5575 11.6882 12.3068 11.4375 11.9975 11.4375C11.6882 11.4375 11.4375 11.6882 11.4375 11.9975C11.4375 12.3068 11.6882 12.5575 11.9975 12.5575Z" fill="#000088"/>
<path d="M14.7614 12.523C14.8403 12.5334 14.9126 12.4779 14.923 12.399C14.9334 12.3202 14.8779 12.2479 14.799 12.2375C14.7202 12.2271 14.6478 12.2826 14.6375 12.3615C14.6271 12.4403 14.6826 12.5126 14.7614 12.523Z" fill="#000088"/>
<path d="M12.0022 14.8159L12.0982 13.1359L12.0022 12.3359L11.9062 13.1359L12.0022 14.8159Z" fill="#000088"/>
<path d="M14.5385 13.2196C14.6119 13.25 14.6962 13.2151 14.7266 13.1416C14.757 13.0682 14.7221 12.9839 14.6487 12.9535C14.5752 12.923 14.491 12.9579 14.4605 13.0314C14.4301 13.1049 14.465 13.1891 14.5385 13.2196Z" fill="#000088"/>
<path d="M11.279 14.7172L11.8065 13.1192L11.9209 12.3217L11.6211 13.0696L11.279 14.7172Z" fill="#000088"/>
<path d="M14.142 13.8317C14.2051 13.8802 14.2955 13.8683 14.3439 13.8052C14.3924 13.7421 14.3805 13.6517 14.3174 13.6033C14.2543 13.5548 14.1639 13.5667 14.1155 13.6298C14.067 13.6929 14.079 13.7833 14.142 13.8317Z" fill="#000088"/>
<path d="M10.6088 14.4379L11.5319 13.031L11.8488 12.2902L11.3656 12.935L10.6088 14.4379Z" fill="#000088"/>
<path d="M13.5936 14.3286C13.642 14.3917 13.7324 14.4036 13.7955 14.3552C13.8585 14.3068 13.8705 14.2164 13.822 14.1533C13.7736 14.0902 13.6832 14.0783 13.6201 14.1267C13.557 14.1751 13.5451 14.2655 13.5936 14.3286Z" fill="#000088"/>
<path d="M10.0252 13.9933L11.281 12.8733L11.7788 12.2397L11.1453 12.7375L10.0252 13.9933Z" fill="#000088"/>
<path d="M12.9375 14.6573C12.9679 14.7308 13.0521 14.7657 13.1256 14.7352C13.1991 14.7048 13.234 14.6206 13.2035 14.5471C13.1731 14.4736 13.0889 14.4387 13.0154 14.4692C12.9419 14.4996 12.907 14.5838 12.9375 14.6573Z" fill="#000088"/>
<path d="M9.57214 13.4091L11.0751 12.6522L11.7199 12.1691L10.9791 12.4859L9.57214 13.4091Z" fill="#000088"/>
<path d="M12.2176 14.8054C12.228 14.8842 12.3004 14.9397 12.3792 14.9293C12.458 14.919 12.5136 14.8466 12.5032 14.7678C12.4928 14.6889 12.4205 14.6334 12.3416 14.6438C12.2628 14.6542 12.2073 14.7265 12.2176 14.8054Z" fill="#000088"/>
<path d="M9.29342 12.7346L10.941 12.3925L11.6889 12.0927L10.8913 12.2071L9.29342 12.7346Z" fill="#000088"/>
<path d="M11.4847 14.7614C11.4744 14.8403 11.5299 14.9126 11.6087 14.923C11.6876 14.9334 11.7599 14.8779 11.7703 14.799C11.7806 14.7202 11.7251 14.6478 11.6463 14.6375C11.5674 14.6271 11.4951 14.6826 11.4847 14.7614Z" fill="#000088"/>
<path d="M9.19188 12.0022L10.8719 12.0982L11.6719 12.0022L10.8719 11.9062L9.19188 12.0022Z" fill="#000088"/>
<path d="M10.7882 14.5463C10.7578 14.6197 10.7927 14.704 10.8661 14.7344C10.9396 14.7648 11.0238 14.73 11.0543 14.6565C11.0847 14.583 11.0498 14.4988 10.9763 14.4683C10.9029 14.4379 10.8186 14.4728 10.7882 14.5463Z" fill="#000088"/>
<path d="M9.2906 11.2868L10.8885 11.8143L11.6861 11.9287L10.9382 11.6289L9.2906 11.2868Z" fill="#000088"/>
<path d="M10.176 14.1343C10.1276 14.1974 10.1395 14.2878 10.2026 14.3362C10.2657 14.3846 10.3561 14.3727 10.4045 14.3096C10.4529 14.2465 10.441 14.1561 10.3779 14.1077C10.3149 14.0593 10.2245 14.0712 10.176 14.1343Z" fill="#000088"/>
<path d="M9.56989 10.6088L10.9768 11.5319L11.7176 11.8488L11.0728 11.3657L9.56989 10.6088Z" fill="#000088"/>
<path d="M9.687 13.5936C9.6239 13.642 9.612 13.7324 9.66042 13.7955C9.70883 13.8586 9.79923 13.8705 9.86232 13.8221C9.92542 13.7737 9.93732 13.6833 9.8889 13.6202C9.84049 13.5571 9.75009 13.5452 9.687 13.5936Z" fill="#000088"/>
<path d="M10.0144 10.0174L11.1345 11.2732L11.7681 11.771L11.2703 11.1375L10.0144 10.0174Z" fill="#000088"/>
<path d="M9.35831 12.9375C9.28484 12.9679 9.24995 13.0522 9.28038 13.1256C9.31082 13.1991 9.39505 13.234 9.46853 13.2036C9.542 13.1731 9.57689 13.0889 9.54646 13.0154C9.51602 12.942 9.43179 12.9071 9.35831 12.9375Z" fill="#000088"/>
<path d="M10.6066 9.57216L11.3634 11.0751L11.8466 11.7199L11.5297 10.9791L10.6066 9.57216Z" fill="#000088"/>
<path d="M9.21027 12.2177C9.13142 12.228 9.07591 12.3004 9.0863 12.3792C9.09668 12.4581 9.16901 12.5136 9.24786 12.5032C9.32671 12.4928 9.38221 12.4205 9.37183 12.3416C9.36145 12.2628 9.28912 12.2073 9.21027 12.2177Z" fill="#000088"/>
<path d="M11.281 9.29345L11.6231 10.941L11.9229 11.6889L11.8086 10.8914L11.281 9.29345Z" fill="#000088"/>
<path d="M9.23857 11.4926C9.15973 11.4822 9.08739 11.5377 9.07701 11.6165C9.06663 11.6954 9.12213 11.7677 9.20098 11.7781C9.27983 11.7885 9.35217 11.733 9.36255 11.6541C9.37293 11.5753 9.31742 11.503 9.23857 11.4926Z" fill="#000088"/>
<path d="M11.9978 9.19972L11.9018 10.8797L11.9978 11.6797L12.0938 10.8797L11.9978 9.19972Z" fill="#000088"/>
<path d="M9.46155 10.796C9.38807 10.7656 9.30384 10.8005 9.2734 10.874C9.24297 10.9474 9.27786 11.0317 9.35134 11.0621C9.42481 11.0925 9.50905 11.0577 9.53948 10.9842C9.56992 10.9107 9.53502 10.8265 9.46155 10.796Z" fill="#000088"/>
<path d="M12.721 9.29844L12.1935 10.8963L12.0791 11.6939L12.3789 10.946L12.721 9.29844Z" fill="#000088"/>
<path d="M9.85796 10.1839C9.79486 10.1354 9.70447 10.1473 9.65605 10.2104C9.60764 10.2735 9.61954 10.3639 9.68263 10.4123C9.74573 10.4608 9.83612 10.4489 9.88454 10.3858C9.93295 10.3227 9.92105 10.2323 9.85796 10.1839Z" fill="#000088"/>
<path d="M13.3912 9.5777L12.4681 10.9846L12.1512 11.7254L12.6344 11.0806L13.3912 9.5777Z" fill="#000088"/>
<path d="M10.4064 9.687C10.358 9.6239 10.2676 9.612 10.2045 9.66042C10.1415 9.70883 10.1295 9.79923 10.178 9.86232C10.2264 9.92541 10.3168 9.93732 10.3799 9.8889C10.443 9.84049 10.4549 9.75009 10.4064 9.687Z" fill="#000088"/>
<path d="M13.9748 10.0222L12.719 11.1423L12.2212 11.7759L12.8547 11.2781L13.9748 10.0222Z" fill="#000088"/>
<path d="M11.0625 9.35831C11.0321 9.28484 10.9479 9.24994 10.8744 9.28038C10.8009 9.31081 10.766 9.39505 10.7965 9.46852C10.8269 9.542 10.9111 9.57689 10.9846 9.54646C11.0581 9.51602 11.093 9.43179 11.0625 9.35831Z" fill="#000088"/>
<path d="M14.4279 10.6066L12.9249 11.3634L12.2801 11.8465L13.0209 11.5297L14.4279 10.6066Z" fill="#000088"/>
<path d="M11.7824 9.21027C11.772 9.13142 11.6996 9.07591 11.6208 9.08629C11.542 9.09667 11.4864 9.16901 11.4968 9.24786C11.5072 9.32671 11.5795 9.38221 11.6584 9.37183C11.7372 9.36145 11.7927 9.28911 11.7824 9.21027Z" fill="#000088"/>
<path d="M14.7066 11.281L13.059 11.6231L12.3111 11.9229L13.1087 11.8086L14.7066 11.281Z" fill="#000088"/>
<path d="M12.5153 9.2542C12.5256 9.17535 12.4701 9.10302 12.3913 9.09263C12.3124 9.08225 12.2401 9.13776 12.2297 9.21661C12.2194 9.29546 12.2749 9.36779 12.3537 9.37817C12.4326 9.38855 12.5049 9.33305 12.5153 9.2542Z" fill="#000088"/>
<path d="M14.8081 12.0134L13.1281 11.9174L12.3281 12.0134L13.1281 12.1094L14.8081 12.0134Z" fill="#000088"/>
<path d="M13.2118 9.46936C13.2422 9.39589 13.2073 9.31165 13.1339 9.28122C13.0604 9.25078 12.9762 9.28567 12.9457 9.35915C12.9153 9.43262 12.9502 9.51686 13.0237 9.54729C13.0971 9.57773 13.1814 9.54284 13.2118 9.46936Z" fill="#000088"/>
<path d="M14.7094 12.7288L13.1115 12.2013L12.3139 12.087L13.0618 12.3867L14.7094 12.7288Z" fill="#000088"/>
<path d="M13.824 9.86577C13.8724 9.80267 13.8605 9.71228 13.7974 9.66386C13.7343 9.61545 13.6439 9.62735 13.5955 9.69044C13.5471 9.75354 13.559 9.84393 13.6221 9.89235C13.6851 9.94076 13.7755 9.92886 13.824 9.86577Z" fill="#000088"/>
<path d="M14.4301 13.399L13.0232 12.4759L12.2824 12.159L12.9272 12.6422L14.4301 13.399Z" fill="#000088"/>
<path d="M14.313 10.4143C14.3761 10.3659 14.388 10.2755 14.3396 10.2124C14.2912 10.1493 14.2008 10.1374 14.1377 10.1858C14.0746 10.2342 14.0627 10.3246 14.1111 10.3877C14.1595 10.4508 14.2499 10.4627 14.313 10.4143Z" fill="#000088"/>
<path d="M13.9778 13.9826L12.8577 12.7268L12.2241 12.229L12.7219 12.8626L13.9778 13.9826Z" fill="#000088"/>
<path d="M14.6417 11.0703C14.7152 11.0399 14.7501 10.9557 14.7196 10.8822C14.6892 10.8087 14.605 10.7738 14.5315 10.8043C14.458 10.8347 14.4231 10.9189 14.4535 10.9924C14.484 11.0659 14.5682 11.1008 14.6417 11.0703Z" fill="#000088"/>
<path d="M13.3934 14.4357L12.6366 12.9328L12.1535 12.2879L12.4703 13.0288L13.3934 14.4357Z" fill="#000088"/>
<path d="M14.7897 11.7902C14.8686 11.7798 14.9241 11.7075 14.9137 11.6286C14.9033 11.5498 14.831 11.4943 14.7521 11.5046C14.6733 11.515 14.6178 11.5874 14.6282 11.6662C14.6386 11.7451 14.7109 11.8006 14.7897 11.7902Z" fill="#000088"/>
<path d="M12.719 14.7144L12.3769 13.0668L12.0771 12.3189L12.1914 13.1165L12.719 14.7144Z" fill="#000088"/>
</g>
<defs>
<clipPath id="clip0_2001_884">
<rect width="24" height="24" rx="12" fill="white"/>
</clipPath>
</defs>
</svg>
