<svg width="24" height="24" viewBox="0 0 24 24" fill="none" xmlns="http://www.w3.org/2000/svg">
<g clip-path="url(#clip0_2001_762)">
<path d="M0 0H24V8.00156H0V0Z" fill="#FF9933"/>
<path d="M0 8H24V15.9969H0V8Z" fill="white"/>
<path d="M0 16H24V24.0016H0V16Z" fill="#128807"/>
<path d="M11.9969 15.2047C13.7642 15.2047 15.1969 13.772 15.1969 12.0047C15.1969 10.2374 13.7642 8.80469 11.9969 8.80469C10.2296 8.80469 8.79688 10.2374 8.79688 12.0047C8.79688 13.772 10.2296 15.2047 11.9969 15.2047Z" fill="#000088"/>
<path d="M11.9953 14.8031C13.5417 14.8031 14.7953 13.5495 14.7953 12.0031C14.7953 10.4567 13.5417 9.20312 11.9953 9.20312C10.4489 9.20312 9.19531 10.4567 9.19531 12.0031C9.19531 13.5495 10.4489 14.8031 11.9953 14.8031Z" fill="white"/>
<path d="M11.9975 12.5653C12.3068 12.5653 12.5575 12.3146 12.5575 12.0053C12.5575 11.696 12.3068 11.4453 11.9975 11.4453C11.6882 11.4453 11.4375 11.696 11.4375 12.0053C11.4375 12.3146 11.6882 12.5653 11.9975 12.5653Z" fill="#000088"/>
<path d="M14.7615 12.5074C14.8404 12.5178 14.9127 12.4623 14.9231 12.3835C14.9335 12.3046 14.878 12.2323 14.7991 12.2219C14.7203 12.2115 14.648 12.267 14.6376 12.3459C14.6272 12.4247 14.6827 12.497 14.7615 12.5074Z" fill="#000088"/>
<path d="M12.0024 14.8003L12.0984 13.1203L12.0024 12.3203L11.9064 13.1203L12.0024 14.8003Z" fill="#000088"/>
<path d="M14.5386 13.204C14.612 13.2344 14.6963 13.1995 14.7267 13.126C14.7572 13.0526 14.7223 12.9683 14.6488 12.9379C14.5753 12.9075 14.4911 12.9423 14.4606 13.0158C14.4302 13.0893 14.4651 13.1735 14.5386 13.204Z" fill="#000088"/>
<path d="M11.2791 14.7016L11.8066 13.1037L11.921 12.3061L11.6212 13.054L11.2791 14.7016Z" fill="#000088"/>
<path d="M14.1422 13.8318C14.2053 13.8802 14.2957 13.8683 14.3441 13.8052C14.3925 13.7421 14.3806 13.6517 14.3175 13.6033C14.2544 13.5549 14.164 13.5668 14.1156 13.6299C14.0672 13.693 14.0791 13.7834 14.1422 13.8318Z" fill="#000088"/>
<path d="M10.6089 14.4379L11.532 13.031L11.8489 12.2902L11.3657 12.935L10.6089 14.4379Z" fill="#000088"/>
<path d="M13.5937 14.3208C13.6421 14.3839 13.7325 14.3958 13.7956 14.3474C13.8587 14.299 13.8706 14.2086 13.8222 14.1455C13.7737 14.0824 13.6833 14.0705 13.6203 14.1189C13.5572 14.1673 13.5453 14.2577 13.5937 14.3208Z" fill="#000088"/>
<path d="M10.0175 13.9934L11.2733 12.8733L11.7711 12.2398L11.1376 12.7376L10.0175 13.9934Z" fill="#000088"/>
<path d="M12.9375 14.6573C12.9679 14.7308 13.0521 14.7657 13.1256 14.7352C13.1991 14.7048 13.234 14.6206 13.2035 14.5471C13.1731 14.4736 13.0889 14.4387 13.0154 14.4692C12.9419 14.4996 12.907 14.5838 12.9375 14.6573Z" fill="#000088"/>
<path d="M9.57213 13.4091L11.0751 12.6522L11.7199 12.1691L10.9791 12.4859L9.57213 13.4091Z" fill="#000088"/>
<path d="M12.2176 14.8054C12.228 14.8842 12.3004 14.9397 12.3792 14.9293C12.458 14.919 12.5136 14.8466 12.5032 14.7678C12.4928 14.6889 12.4205 14.6334 12.3416 14.6438C12.2628 14.6542 12.2073 14.7265 12.2176 14.8054Z" fill="#000088"/>
<path d="M9.29342 12.7346L10.941 12.3925L11.6889 12.0927L10.8913 12.2071L9.29342 12.7346Z" fill="#000088"/>
<path d="M11.4847 14.7614C11.4744 14.8403 11.5299 14.9126 11.6087 14.923C11.6876 14.9334 11.7599 14.8779 11.7703 14.799C11.7806 14.7202 11.7251 14.6478 11.6463 14.6375C11.5674 14.6271 11.4951 14.6826 11.4847 14.7614Z" fill="#000088"/>
<path d="M9.19188 12.0022L10.8719 12.0982L11.6719 12.0022L10.8719 11.9062L9.19188 12.0022Z" fill="#000088"/>
<path d="M10.7882 14.5463C10.7578 14.6197 10.7926 14.704 10.8661 14.7344C10.9396 14.7648 11.0238 14.73 11.0543 14.6565C11.0847 14.583 11.0498 14.4988 10.9763 14.4683C10.9029 14.4379 10.8186 14.4728 10.7882 14.5463Z" fill="#000088"/>
<path d="M9.2906 11.2868L10.8885 11.8143L11.6861 11.9287L10.9382 11.6289L9.2906 11.2868Z" fill="#000088"/>
<path d="M10.176 14.1265C10.1276 14.1895 10.1395 14.2799 10.2026 14.3284C10.2657 14.3768 10.3561 14.3649 10.4045 14.3018C10.4529 14.2387 10.441 14.1483 10.3779 14.0999C10.3149 14.0515 10.2245 14.0634 10.176 14.1265Z" fill="#000088"/>
<path d="M9.56988 10.601L10.9768 11.5241L11.7176 11.841L11.0728 11.3578L9.56988 10.601Z" fill="#000088"/>
<path d="M9.687 13.5858C9.6239 13.6342 9.612 13.7246 9.66042 13.7877C9.70883 13.8508 9.79923 13.8627 9.86232 13.8143C9.92541 13.7658 9.93732 13.6754 9.8889 13.6124C9.84049 13.5493 9.75009 13.5374 9.687 13.5858Z" fill="#000088"/>
<path d="M10.0144 10.0096L11.1345 11.2654L11.7681 11.7632L11.2703 11.1297L10.0144 10.0096Z" fill="#000088"/>
<path d="M9.35831 12.9375C9.28484 12.9679 9.24994 13.0522 9.28038 13.1256C9.31081 13.1991 9.39505 13.234 9.46852 13.2036C9.542 13.1731 9.57689 13.0889 9.54646 13.0154C9.51602 12.942 9.43179 12.9071 9.35831 12.9375Z" fill="#000088"/>
<path d="M10.6066 9.57216L11.3634 11.0751L11.8465 11.7199L11.5297 10.9791L10.6066 9.57216Z" fill="#000088"/>
<path d="M9.21027 12.2177C9.13142 12.228 9.07591 12.3004 9.08629 12.3792C9.09667 12.4581 9.16901 12.5136 9.24786 12.5032C9.32671 12.4928 9.38221 12.4205 9.37183 12.3416C9.36145 12.2628 9.28911 12.2073 9.21027 12.2177Z" fill="#000088"/>
<path d="M11.281 9.29345L11.6231 10.941L11.9229 11.6889L11.8086 10.8914L11.281 9.29345Z" fill="#000088"/>
<path d="M9.23845 11.4926C9.1596 11.4822 9.08727 11.5377 9.07689 11.6165C9.06651 11.6954 9.12201 11.7677 9.20086 11.7781C9.27971 11.7885 9.35204 11.733 9.36242 11.6541C9.3728 11.5753 9.3173 11.503 9.23845 11.4926Z" fill="#000088"/>
<path d="M11.9976 9.19972L11.9016 10.8797L11.9976 11.6797L12.0936 10.8797L11.9976 9.19972Z" fill="#000088"/>
<path d="M9.46143 10.796C9.38795 10.7656 9.30372 10.8005 9.27328 10.874C9.24285 10.9474 9.27774 11.0317 9.35121 11.0621C9.42469 11.0925 9.50892 11.0577 9.53936 10.9842C9.56979 10.9107 9.5349 10.8265 9.46143 10.796Z" fill="#000088"/>
<path d="M12.7209 9.29844L12.1934 10.8963L12.079 11.6939L12.3788 10.946L12.7209 9.29844Z" fill="#000088"/>
<path d="M9.85796 10.1839C9.79486 10.1354 9.70447 10.1473 9.65605 10.2104C9.60764 10.2735 9.61954 10.3639 9.68263 10.4123C9.74573 10.4608 9.83612 10.4489 9.88454 10.3858C9.93295 10.3227 9.92105 10.2323 9.85796 10.1839Z" fill="#000088"/>
<path d="M13.3912 9.5777L12.4681 10.9846L12.1512 11.7254L12.6344 11.0806L13.3912 9.5777Z" fill="#000088"/>
<path d="M10.4063 9.687C10.3579 9.6239 10.2675 9.612 10.2044 9.66042C10.1413 9.70883 10.1294 9.79923 10.1778 9.86232C10.2263 9.92541 10.3167 9.93732 10.3797 9.8889C10.4428 9.84049 10.4547 9.75009 10.4063 9.687Z" fill="#000088"/>
<path d="M13.9747 10.0222L12.7189 11.1423L12.2211 11.7759L12.8546 11.2781L13.9747 10.0222Z" fill="#000088"/>
<path d="M11.0625 9.35831C11.0321 9.28484 10.9479 9.24994 10.8744 9.28038C10.8009 9.31081 10.766 9.39505 10.7965 9.46852C10.8269 9.542 10.9111 9.57689 10.9846 9.54646C11.0581 9.51602 11.093 9.43179 11.0625 9.35831Z" fill="#000088"/>
<path d="M14.4279 10.6066L12.9249 11.3634L12.2801 11.8465L13.0209 11.5297L14.4279 10.6066Z" fill="#000088"/>
<path d="M11.7824 9.21027C11.772 9.13142 11.6996 9.07591 11.6208 9.08629C11.542 9.09667 11.4864 9.16901 11.4968 9.24786C11.5072 9.32671 11.5795 9.38221 11.6584 9.37183C11.7372 9.36145 11.7927 9.28911 11.7824 9.21027Z" fill="#000088"/>
<path d="M14.7066 11.281L13.059 11.6231L12.3111 11.9229L13.1087 11.8086L14.7066 11.281Z" fill="#000088"/>
<path d="M12.5153 9.2542C12.5256 9.17535 12.4701 9.10302 12.3913 9.09263C12.3124 9.08225 12.2401 9.13776 12.2297 9.21661C12.2194 9.29546 12.2749 9.36779 12.3537 9.37817C12.4326 9.38855 12.5049 9.33305 12.5153 9.2542Z" fill="#000088"/>
<path d="M14.8081 12.0134L13.1281 11.9174L12.3281 12.0134L13.1281 12.1094L14.8081 12.0134Z" fill="#000088"/>
<path d="M13.2118 9.46936C13.2422 9.39589 13.2074 9.31165 13.1339 9.28122C13.0604 9.25078 12.9762 9.28567 12.9457 9.35915C12.9153 9.43262 12.9502 9.51686 13.0237 9.54729C13.0971 9.57773 13.1814 9.54284 13.2118 9.46936Z" fill="#000088"/>
<path d="M14.7094 12.7288L13.1115 12.2013L12.3139 12.087L13.0618 12.3867L14.7094 12.7288Z" fill="#000088"/>
<path d="M13.8161 9.87358C13.8646 9.81049 13.8527 9.72009 13.7896 9.67168C13.7265 9.62326 13.6361 9.63516 13.5877 9.69826C13.5392 9.76135 13.5511 9.85175 13.6142 9.90016C13.6773 9.94858 13.7677 9.93667 13.8161 9.87358Z" fill="#000088"/>
<path d="M14.4223 13.4069L13.0154 12.4837L12.2746 12.1669L12.9194 12.65L14.4223 13.4069Z" fill="#000088"/>
<path d="M14.313 10.4143C14.3761 10.3659 14.388 10.2755 14.3396 10.2124C14.2912 10.1493 14.2008 10.1374 14.1377 10.1858C14.0746 10.2342 14.0627 10.3246 14.1111 10.3877C14.1595 10.4508 14.2499 10.4627 14.313 10.4143Z" fill="#000088"/>
<path d="M13.9778 13.9826L12.8577 12.7268L12.2241 12.229L12.7219 12.8626L13.9778 13.9826Z" fill="#000088"/>
<path d="M14.6417 11.0703C14.7152 11.0399 14.7501 10.9557 14.7196 10.8822C14.6892 10.8087 14.605 10.7738 14.5315 10.8043C14.458 10.8347 14.4231 10.9189 14.4535 10.9924C14.484 11.0659 14.5682 11.1008 14.6417 11.0703Z" fill="#000088"/>
<path d="M13.3934 14.4357L12.6366 12.9328L12.1535 12.2879L12.4703 13.0288L13.3934 14.4357Z" fill="#000088"/>
<path d="M14.7897 11.7902C14.8686 11.7798 14.9241 11.7075 14.9137 11.6286C14.9033 11.5498 14.831 11.4943 14.7521 11.5046C14.6733 11.515 14.6178 11.5874 14.6282 11.6662C14.6386 11.7451 14.7109 11.8006 14.7897 11.7902Z" fill="#000088"/>
<path d="M12.719 14.7144L12.3769 13.0668L12.0771 12.3189L12.1914 13.1165L12.719 14.7144Z" fill="#000088"/>
</g>
<defs>
<clipPath id="clip0_2001_762">
<rect width="24" height="24" rx="12" fill="white"/>
</clipPath>
</defs>
</svg>
