<svg width="26" height="26" viewBox="0 0 26 26" fill="none" xmlns="http://www.w3.org/2000/svg">
<path d="M10.1301 15.3968L18.5964 6.93044C18.8595 6.66737 19.1943 6.53583 19.6009 6.53583C20.0075 6.53583 20.3423 6.66737 20.6054 6.93044C20.8685 7.19352 21 7.52835 21 7.93492C21 8.3415 20.8685 8.67633 20.6054 8.93941L11.1346 18.4102C10.8476 18.6972 10.5127 18.8407 10.1301 18.8407C9.74743 18.8407 9.4126 18.6972 9.1256 18.4102L5.39468 14.6793C5.1316 14.4162 5.00006 14.0814 5.00006 13.6748C5.00006 13.2682 5.1316 12.9334 5.39468 12.6703C5.65776 12.4073 5.99258 12.2757 6.39916 12.2757C6.80573 12.2757 7.14056 12.4073 7.40364 12.6703L10.1301 15.3968Z" fill="#292D32"/>
</svg>
